<?xml version="1.0" encoding="UTF-8" standalone="no"?>
<!DOCTYPE svg PUBLIC "-//W3C//DTD SVG 1.1//EN" "http://www.w3.org/Graphics/SVG/1.1/DTD/svg11.dtd">
<svg width="100%" height="100%" viewBox="0 0 572 599" version="1.1" xmlns="http://www.w3.org/2000/svg" xmlns:xlink="http://www.w3.org/1999/xlink" xml:space="preserve" xmlns:serif="http://www.serif.com/" style="fill-rule:evenodd;clip-rule:evenodd;stroke-linejoin:round;stroke-miterlimit:2;">
  <style>
    :root {
      --background-color: 0; /* Default background hue */
    }
  </style>
  <g transform="matrix(1,0,0,1,-213.988,-200.167)">
    <g transform="matrix(1,0,0,1,501.547,200.422)">
        <path style="fill:currentColor;fill-rule:nonzero;" d="M0,0C0.81,0.521 1.619,1.042 2.453,1.578C3.531,2.181 4.608,2.785 5.719,3.406C7.051,4.207 8.378,5.015 9.703,5.828C10.45,6.285 11.196,6.742 11.965,7.212C24.761,15.148 37.198,23.662 49.694,32.058C52.063,33.649 54.437,35.233 56.816,36.81C62.758,40.748 68.624,44.761 74.391,48.953C75.16,49.511 75.929,50.069 76.722,50.645C88.33,59.097 99.535,68.006 110.642,77.103C112.202,78.374 113.776,79.628 115.352,80.879C127.783,90.79 139.033,102.065 150.304,113.254C151.345,114.286 152.387,115.318 153.431,116.347C160.242,123.075 166.478,130.087 172.453,137.578C173.388,138.68 174.329,139.776 175.281,140.863C209.1,179.646 231.197,227.31 245.951,276.286C246.299,277.436 253.673,309.262 253.937,310.22C258.356,326.257 262.496,348.843 269.56,364.591C270.503,366.69 271.455,368.785 272.406,370.881C274.085,374.585 275.735,378.3 277.367,382.025C278.001,383.46 278.641,384.893 279.289,386.321C282.852,394.197 285.817,400.855 283.453,409.578C283.171,410.686 283.171,410.686 282.884,411.815C282.223,414.13 281.459,416.377 280.641,418.641C280.339,419.484 280.038,420.328 279.728,421.197C262.939,466.551 232.977,507.64 200.613,543.199C199.192,544.764 197.783,546.339 196.387,547.926C187.431,558.069 177.909,567.968 167.453,576.578C166.899,577.04 166.345,577.503 165.775,577.979C156.963,585.326 148.02,592.238 138.453,598.578C137.793,598.248 137.133,597.918 136.453,597.578C138.181,595.119 139.91,592.66 141.641,590.203C142.179,589.438 142.718,588.673 143.273,587.885C146.592,583.183 149.947,578.51 153.337,573.859C168.972,552.39 182.863,529.96 195.453,506.578C195.944,505.67 196.435,504.762 196.94,503.827C209.061,481.301 219.458,458.159 228.703,434.328C228.988,433.602 229.273,432.877 229.566,432.129C233.846,421.178 236.556,412.357 234.016,400.641C233.836,399.79 233.656,398.939 233.471,398.063C228.807,377.026 221.341,357.161 212.453,337.578C211.979,336.527 211.504,335.477 211.015,334.394C200.903,312.192 189.067,291.134 174.453,271.578C174.015,270.985 173.577,270.391 173.126,269.78C168.021,262.877 162.604,256.358 156.758,250.066C154.751,247.9 152.811,245.696 150.891,243.453C144.617,236.251 137.719,229.761 130.453,223.578C129.555,222.791 128.656,222.003 127.73,221.191C112.05,207.541 94.862,195.888 77.453,184.578C76.707,184.092 75.961,183.606 75.193,183.105C59.91,173.184 44.169,163.995 28.465,154.763C26.486,153.598 24.51,152.429 22.534,151.259C18.93,149.125 15.317,147.007 11.703,144.891C10.621,144.249 9.539,143.607 8.424,142.946C7.428,142.367 6.432,141.788 5.406,141.191C4.542,140.684 3.677,140.176 2.786,139.654C0.276,138.299 0.276,138.299 -3.547,138.578C-6.152,139.831 -8.61,141.138 -11.109,142.578C-11.885,143.017 -12.661,143.457 -13.461,143.909C-23.495,149.628 -33.418,155.543 -43.332,161.466C-47.284,163.826 -51.242,166.175 -55.203,168.52C-67.569,175.857 -79.716,183.404 -91.547,191.578C-92.268,192.074 -92.989,192.57 -93.732,193.081C-113.607,206.786 -131.992,222.016 -149.547,238.578C-150.224,239.212 -150.9,239.847 -151.598,240.5C-155.83,244.586 -159.5,249.072 -163.18,253.656C-164.709,255.544 -166.265,257.41 -167.852,259.25C-181.144,274.678 -191.858,291.717 -201.547,309.578C-202.044,310.484 -202.542,311.39 -203.054,312.323C-216.69,337.248 -227.818,363.478 -234.922,391.016C-235.173,391.974 -235.424,392.933 -235.683,393.92C-238.966,407.249 -238.999,416.85 -233.859,429.703C-233.353,431.018 -232.847,432.333 -232.343,433.648C-227.236,446.838 -221.53,459.765 -215.547,472.578C-215.002,473.752 -214.456,474.926 -213.895,476.136C-198.626,508.926 -180.846,540.307 -159.547,569.578C-158.417,571.141 -157.288,572.705 -156.16,574.27C-154.468,576.615 -152.775,578.959 -151.079,581.302C-147.178,586.689 -143.328,592.106 -139.547,597.578C-156.781,597.578 -182.619,565.556 -194.109,554.141C-197.738,550.494 -201.266,546.788 -204.598,542.867C-206.18,541.009 -207.783,539.177 -209.402,537.352C-217.583,528.094 -225.184,518.495 -232.547,508.578C-233.078,507.868 -233.609,507.158 -234.156,506.427C-248.289,487.476 -260.683,467.573 -271.547,446.578C-272.123,445.476 -272.123,445.476 -272.71,444.351C-277.298,435.468 -280.835,426.356 -284.047,416.891C-284.573,415.348 -284.573,415.348 -285.11,413.774C-285.43,412.798 -285.749,411.822 -286.078,410.816C-286.504,409.518 -286.504,409.518 -286.939,408.193C-288.328,402.214 -287.269,398.179 -284.863,392.602C-284.577,391.931 -284.29,391.261 -283.995,390.571C-283.045,388.359 -282.078,386.156 -281.109,383.953C-280.43,382.392 -279.751,380.83 -279.072,379.269C-258.457,332.093 -257.93,286.8 -240.525,242.974C-235.215,229.603 -228.062,214.293 -220.772,200.212C-217.026,192.978 -192.933,153.008 -145.172,105.078C-144.656,104.559 -144.139,104.04 -143.607,103.505C-137.768,97.643 -131.865,91.929 -125.547,86.578C-124.37,85.558 -123.194,84.537 -122.02,83.516C-120.883,82.536 -119.746,81.557 -118.609,80.578C-118.053,80.096 -117.497,79.614 -116.924,79.117C-112.257,75.104 -107.425,71.33 -102.547,67.578C-101.762,66.969 -100.978,66.361 -100.169,65.733C-87.909,56.227 -75.446,47.192 -62.547,38.578C-61.3,37.741 -60.053,36.904 -58.807,36.067C-25.92,13.977 -25.92,13.977 -12.437,5.769C-11.085,4.917 -9.761,4.02 -8.458,3.094C-3.218,-0.533 -3.218,-0.533 0,0Z" style="fill:rgb(252,253,253);fill-rule:nonzero;"/>
    </g>
    <g transform="matrix(1.22021,0,0,1.28649,499.39,259.59)">
        <path style="fill:hsl(var(--background-color), 100%, 20%);fill-rule:nonzero;" d="M0,0C1.603,0.692 7.183,5.621 12.86,8.055C17.622,10.097 37.041,21.467 44.977,26.07C76.29,44.238 106.421,67.279 128,97C124.229,97 122.878,95.863 119.73,93.816C118.161,92.803 114.312,90.298 113.188,89.563C112.034,88.815 101.809,82.182 97.858,79.601C85.785,71.714 73.419,64.326 61,57C59.769,56.27 59.769,56.27 58.514,55.525C45.519,47.862 31.891,41.848 18,36C17.257,35.681 16.514,35.361 15.748,35.032C6.299,30.979 -0.385,29.643 -10.102,33.335C-10.955,33.679 -11.809,34.022 -12.688,34.375C-13.597,34.732 -14.506,35.089 -15.443,35.458C-21.32,37.81 -27.115,40.346 -32.836,43.038C-60.301,55.959 -86.08,72.471 -111.141,89.48C-112.381,90.319 -119.753,95.343 -120.473,95.832C-121.084,96.252 -121.695,96.672 -122.324,97.105C-124,98 -124,98 -127,98C-103.007,67.767 -75.78,43.825 -42.722,24.557C-40.929,23.507 -33.873,19.946 -32.134,18.941C-21.342,12.611 -9.8,7.611 0,0Z"/>
    </g>
    <g transform="matrix(0.943022,0.0845917,-0.0915021,1.02006,91.7912,-64.1396)">
        <path style="fill:currentColor;" d="M413.256,511.472C439.685,511.472 458.991,521.972 458.991,534.906C458.991,547.839 437.533,558.34 411.104,558.34C384.674,558.34 361.065,543.86 361.065,530.926C361.065,517.993 386.827,511.472 413.256,511.472Z"/>
    </g>
    <g transform="matrix(-0.943022,0.0845917,0.0915021,1.02006,908.209,-64.1396)">
        <path style="fill:currentColor;" d="M413.256,511.472C439.685,511.472 458.991,521.972 458.991,534.906C458.991,547.839 437.533,558.34 411.104,558.34C384.674,558.34 361.065,543.86 361.065,530.926C361.065,517.993 386.827,511.472 413.256,511.472Z"/>
    </g>
  </g>
</svg>
