<?xml version="1.0" encoding="UTF-8" standalone="no"?>
<!DOCTYPE svg PUBLIC "-//W3C//DTD SVG 1.1//EN" "http://www.w3.org/Graphics/SVG/1.1/DTD/svg11.dtd">
<svg width="100%" height="100%" viewBox="0 0 260 204" version="1.1" xmlns="http://www.w3.org/2000/svg" xmlns:xlink="http://www.w3.org/1999/xlink" xml:space="preserve" xmlns:serif="http://www.serif.com/" style="fill-rule:evenodd;clip-rule:evenodd;stroke-linejoin:round;stroke-miterlimit:2;">
    <g id="g4843" transform="matrix(0.817017,0,0,0.817017,-9.93955,-6.8419)">
        <g id="path1331" transform="matrix(0.930219,0,0,0.930219,11.9521,9.61643)">
            <path d="M141.166,253.305C135.391,251.145 128.77,248.671 126.454,247.808C124.137,246.944 117.923,242.669 112.645,238.306C107.366,233.944 102.876,230.374 102.668,230.374C102.459,230.374 93.082,228.349 81.829,225.874L61.369,221.374L36.767,221.374C23.236,221.374 12.166,221.06 12.166,220.676C12.166,220.292 14.249,214.495 16.795,207.792L21.425,195.607L28.681,194.436C35.718,193.301 35.956,193.169 36.562,190.07C36.905,188.312 38.364,184.085 39.804,180.676C42.755,173.69 41.568,174.257 58.166,171.894C76.873,169.231 75.166,169.965 75.166,164.59C75.166,158.575 88.52,105.804 100.109,66.028L109.095,35.183L117.505,26.028L125.915,16.874L138.831,12.624L151.746,8.374L193.326,8.374L205.155,15.624L216.985,22.874L227.517,49.374C247.816,100.448 261.767,139.82 263.766,151.672C265.268,160.579 265.363,162.829 264.307,164.519C263.603,165.647 263.205,166.747 263.422,166.964C263.64,167.182 267.608,166.258 272.24,164.911L280.661,162.463L285.695,165.304C289.483,167.442 294.065,168.697 304.198,170.373L317.666,172.601L324.031,181.897L330.396,191.193L328.819,200.413C327.951,205.483 327.03,209.843 326.772,210.101C326.514,210.359 324.182,208.951 321.59,206.972L316.878,203.374L283.395,203.374L265.698,208.393L248.002,213.412L235.334,223.245C228.366,228.653 214.462,238.545 204.436,245.226L186.206,257.374L168.936,257.303L151.666,257.232L141.166,253.305Z" style="fill-rule:nonzero;"/>
        </g>
        <g id="path1341" transform="matrix(0.930219,0,0,0.930219,11.9521,9.61643)">
            <path d="M181.587,242.389C189.736,237.378 196.563,233.439 196.759,233.635C196.955,233.831 195.356,237.002 193.206,240.683C191.055,244.363 189.519,247.374 189.793,247.374C190.067,247.374 197.033,241.196 205.273,233.644L220.254,219.913L240.348,210.644L260.442,201.374L281.054,201.382C300.103,201.389 302.461,201.187 312.166,198.724C317.941,197.258 323,195.772 323.409,195.423C323.817,195.074 322.644,191.642 320.801,187.796L317.45,180.804L307.558,179.58C302.117,178.906 294.572,178.359 290.79,178.365C284.207,178.374 283.344,178.675 270.54,185.441C263.184,189.327 257.166,192.311 257.166,192.072C257.166,191.832 262.351,187.19 268.689,181.755L280.212,171.874L275.269,171.575C270.998,171.316 268.922,171.977 259.996,176.436C254.314,179.275 244.941,184.461 239.166,187.96C230.382,193.282 228.023,195.266 224.736,200.098C222.575,203.275 216.489,209.924 211.211,214.874C203.339,222.258 199.072,225.273 187.452,231.666L173.289,239.457L156.666,238.874L168.09,236.433C179.134,234.074 179.767,233.793 187.09,228.01C196.16,220.846 215.383,203.259 214.791,202.666C214.56,202.435 211.287,203.781 207.518,205.657C203.749,207.534 193.678,211.203 185.138,213.811L169.61,218.553L159.638,217.078C154.153,216.267 149.58,215.675 149.476,215.761C149.372,215.848 153.558,218.548 158.779,221.761C163.999,224.974 168.108,227.765 167.911,227.962C166.641,229.232 140.955,217.545 120.666,206.465C98.866,194.561 96.635,193.554 96.331,195.485C96.138,196.709 97.373,199.527 99.244,202.133C103.121,207.531 102.48,207.205 88.902,196.874C79.96,190.071 77.739,187.79 74.053,181.624C71.669,177.637 69.313,174.374 68.816,174.374C68.32,174.374 63.583,175.08 58.29,175.943C49.378,177.396 48.425,177.779 45.416,181.11C43.628,183.089 42.166,184.994 42.166,185.344C42.166,185.694 48.934,190.4 57.207,195.802C65.48,201.204 72.094,205.779 71.905,205.969C71.715,206.158 64.609,203.556 56.113,200.188L40.666,194.063L33.166,198.081C25.901,201.974 25.531,202.356 21.372,210.237L17.078,218.374L69.666,218.396L82.416,221.703C95.074,224.986 95.166,224.994 95.166,222.873C95.166,221.556 91.662,217.002 86.041,211.013C81.022,205.666 77.085,201.125 77.291,200.923C77.497,200.721 79.819,200.8 82.45,201.099C87.138,201.631 87.511,201.944 100.95,216.602C116.677,233.756 126.177,241.21 140.879,247.931C150.403,252.286 150.882,252.394 158.719,251.953L166.771,251.499L181.587,242.389ZM180.748,209.467C194.536,204.533 217.063,193.372 232.896,183.629C244.378,176.563 245.55,175.538 252.072,166.862L259.018,157.621L253.659,139.248C245.358,110.782 234.27,79.829 222.609,52.567L211.964,27.678L202.647,21.993L193.33,16.307L181.998,16.591L170.666,16.874L174.166,18.934C176.091,20.067 180.792,22.092 184.613,23.434L191.561,25.874L179.113,26.193C169.62,26.436 163.389,25.966 152.858,24.215L139.051,21.918L130.391,26.396L121.731,30.874L113.842,47.874L105.953,64.874L99.562,100.123C94.031,130.629 92.64,136.647 89.227,144.848L85.284,154.323L86.54,166.041L87.796,177.759L96.698,185.987L105.6,194.215L123.726,200.776C137.682,205.828 159.254,211.756 169.248,213.285C169.568,213.334 174.743,211.616 180.748,209.467Z" style="fill:rgb(140,140,140);fill-rule:nonzero;"/>
        </g>
        <g id="path1337" transform="matrix(0.930219,0,0,0.930219,11.9521,9.61643)">
            <path d="M160.891,197.802L151.116,196.465L140.391,188.099C134.492,183.497 125.616,177.409 120.666,174.57C115.716,171.731 111.108,169.039 110.427,168.589C109.472,167.958 110.52,160.774 115.002,137.226L120.816,106.683L129.648,86.057L138.48,65.431L143.3,63.83C145.951,62.949 148.566,62.504 149.111,62.84C149.655,63.177 152.719,66.697 155.919,70.663C160.123,75.873 163.671,82.104 168.702,93.113C172.532,101.494 175.908,108.357 176.204,108.363C176.5,108.369 178.476,102.412 180.594,95.124C182.713,87.837 186.478,77.271 188.962,71.644C193.267,61.893 193.599,61.443 196.072,62.033C200.953,63.196 201.929,64.332 209.681,77.87C217.369,91.295 217.487,91.607 221.715,109.918C224.693,122.814 226.35,132.866 227.193,143.141C228.141,154.709 228.918,159.04 230.808,163.299C232.132,166.283 232.867,169.042 232.441,169.429C232.014,169.817 227.616,171.928 222.666,174.121C217.716,176.314 205.469,181.768 195.45,186.241C177.875,194.088 176.96,194.377 169.45,194.452L161.666,194.53L168.166,196.874C175.573,199.545 174.573,199.673 160.891,197.802Z" style="fill-rule:nonzero;"/>
        </g>
    </g>
</svg>
